<!DOCTYPE svg PUBLIC "-//W3C//DTD SVG 20010904//EN" "http://www.w3.org/TR/2001/REC-SVG-20010904/DTD/svg10.dtd">
<svg version="1.0" xmlns="http://www.w3.org/2000/svg" width="773px" height="346px" viewBox="0 0 7730 3460" preserveAspectRatio="xMidYMid meet">
<g id="layer101" fill="#323232" stroke="none">
 <path d="M0 1730 l0 -1730 3865 0 3865 0 0 1730 0 1730 -3865 0 -3865 0 0 -1730z m4207 1028 c-2 -13 -4 -3 -4 22 0 25 2 35 4 23 2 -13 2 -33 0 -45z m2934 15 c8 -9 9 -14 2 -10 -7 4 -13 0 -16 -10 -3 -10 -4 -6 -4 10 2 32 1 32 18 10z m34 -43 c10 -11 16 -20 13 -20 -3 0 -13 9 -23 20 -10 11 -16 20 -13 20 3 0 13 -9 23 -20z m-2978 -52 c-3 -7 -5 -2 -5 12 0 14 2 19 5 13 2 -7 2 -19 0 -25z m-2307 -142 c0 -2 -7 -7 -16 -10 -8 -3 -12 -2 -9 4 6 10 25 14 25 6z m4437 -208 c-3 -7 -5 -2 -5 12 0 14 2 19 5 13 2 -7 2 -19 0 -25z m-2690 6 c-3 -3 -12 -4 -19 -1 -8 3 -5 6 6 6 11 1 17 -2 13 -5z m-1826 -207 c-10 -9 -11 -8 -5 6 3 10 9 15 12 12 3 -3 0 -11 -7 -18z m2386 -129 c-2 -13 -4 -3 -4 22 0 25 2 35 4 23 2 -13 2 -33 0 -45z m313 -78 c14 -12 18 -18 10 -14 -24 12 -51 37 -62 59 -8 18 -7 18 9 -2 10 -12 29 -31 43 -43z m-253 -122 c-3 -7 -5 -2 -5 12 0 14 2 19 5 13 2 -7 2 -19 0 -25z m643 -468 c20 -6 21 -8 5 -8 -11 0 -33 4 -50 8 -27 7 -27 8 -5 8 14 0 36 -4 50 -8z m2139 6 c-2 -2 -15 -9 -29 -15 -24 -11 -24 -11 -6 3 16 13 49 24 35 12z m-2076 -23 c-7 -2 -19 -2 -25 0 -7 3 -2 5 12 5 14 0 19 -2 13 -5z m2002 -13 c-3 -5 -12 -10 -18 -10 -7 0 -6 4 3 10 19 12 23 12 15 0z m-1908 -6 c-3 -3 -12 -4 -19 -1 -8 3 -5 6 6 6 11 1 17 -2 13 -5z m1680 -70 c-3 -3 -12 -4 -19 -1 -8 3 -5 6 6 6 11 1 17 -2 13 -5z m-127 -14 c-8 -5 -31 -9 -50 -8 l-35 1 40 7 c59 11 61 11 45 0z m57 4 c-3 -3 -12 -4 -19 -1 -8 3 -5 6 6 6 11 1 17 -2 13 -5z m-159 -21 c-10 -2 -26 -2 -35 0 -10 3 -2 5 17 5 19 0 27 -2 18 -5z m-3985 -50 c-7 -2 -19 -2 -25 0 -7 3 -2 5 12 5 14 0 19 -2 13 -5z"/>
 </g>
<g id="layer102" fill="#ffffff" stroke="none">
 <path d="M0 1730 l0 -1730 3865 0 3865 0 0 1730 0 1730 -3865 0 -3865 0 0 -1730z m4365 1690 c4 -6 0 -32 -9 -58 -50 -158 -100 -534 -111 -847 -3 -88 -8 -188 -11 -223 -5 -52 -3 -63 11 -68 28 -11 111 13 203 59 48 24 121 57 162 73 l75 29 307 -2 306 -2 51 -25 c46 -24 60 -26 183 -25 73 0 156 -4 183 -10 67 -13 246 -6 440 19 88 11 163 20 168 20 12 0 8 -37 -6 -48 -15 -12 -293 -49 -438 -58 -68 -5 -130 -2 -174 6 -39 6 -126 12 -195 11 -112 0 -132 2 -190 26 -64 25 -71 26 -340 29 -315 4 -323 3 -483 -78 -55 -27 -132 -58 -171 -68 -39 -10 -71 -22 -71 -26 0 -5 20 -18 45 -30 42 -21 201 -179 319 -319 23 -27 63 -73 87 -102 25 -28 58 -68 72 -88 15 -20 44 -56 64 -80 42 -51 52 -77 44 -110 -9 -37 -13 -36 257 -75 38 -5 72 -12 78 -15 5 -4 30 -8 56 -11 27 -2 59 -6 73 -8 60 -10 192 -27 275 -37 50 -5 104 -11 120 -13 217 -26 702 -23 860 5 33 5 76 12 95 16 62 10 233 65 293 94 139 68 256 179 317 299 61 121 75 183 75 330 -1 97 -6 153 -18 200 -31 115 -88 252 -156 375 -91 167 -103 193 -99 206 5 15 64 -46 78 -82 7 -16 16 -29 20 -29 4 0 15 -19 25 -42 9 -24 22 -49 28 -56 27 -33 121 -256 144 -342 33 -123 41 -308 17 -390 -55 -190 -100 -273 -210 -386 -51 -52 -98 -94 -106 -94 -9 0 -26 -9 -39 -19 -63 -49 -279 -119 -459 -148 -160 -25 -732 -25 -955 1 -193 22 -478 62 -580 82 -311 60 -406 81 -595 136 -200 58 -184 57 -176 17 12 -66 37 -265 46 -364 11 -132 58 -455 70 -480 5 -11 14 -56 20 -100 6 -44 15 -93 20 -110 34 -119 30 -195 -9 -195 -25 0 -28 12 -52 155 -11 66 -22 131 -25 145 -19 88 -24 114 -38 197 -27 157 -38 235 -46 323 -25 282 -42 448 -50 466 -5 14 -20 24 -42 27 -39 6 -173 43 -318 87 -58 18 -131 36 -163 41 -32 5 -66 13 -75 17 -9 5 -54 17 -100 27 -79 18 -85 18 -131 1 -26 -9 -54 -15 -62 -12 -17 6 -489 16 -489 10 0 -2 14 -27 32 -56 35 -56 60 -164 51 -213 -8 -41 -75 -129 -125 -165 -23 -17 -60 -35 -82 -41 -23 -7 -63 -19 -91 -29 -27 -9 -55 -15 -62 -13 -7 2 -21 -1 -32 -7 -31 -16 -268 -13 -396 5 -186 26 -282 42 -295 50 -6 4 -33 13 -58 20 -72 21 -241 83 -297 109 -27 14 -77 34 -110 46 -79 29 -146 63 -222 110 -35 21 -73 42 -85 45 -55 17 -423 258 -439 287 -5 10 -14 18 -20 18 -6 0 -25 11 -43 25 -18 14 -36 25 -40 25 -13 0 -207 171 -267 235 -80 85 -97 127 -66 168 12 17 18 16 117 -7 182 -44 367 -67 564 -69 128 -1 195 2 228 12 59 17 85 6 63 -26 -24 -34 -121 -45 -340 -39 -247 6 -365 20 -477 57 -66 22 -98 24 -98 7 0 -23 233 -231 385 -343 147 -109 418 -285 439 -285 4 0 22 -11 40 -25 70 -54 448 -217 641 -278 184 -58 347 -86 540 -94 153 -6 234 3 363 40 95 28 150 63 188 120 26 40 27 44 16 97 -7 30 -26 82 -43 116 -31 63 -210 294 -270 351 -19 18 -54 52 -80 75 -25 24 -48 51 -52 61 -3 9 -14 17 -22 17 -12 0 -15 8 -13 27 4 36 18 38 58 6 55 -43 330 -323 330 -335 0 -16 51 -88 61 -88 5 0 9 6 9 14 0 30 49 73 92 82 61 12 258 10 353 -4 148 -20 277 -42 287 -48 5 -3 41 -12 81 -19 68 -13 222 -57 450 -127 117 -36 126 -32 104 39 -20 59 -38 272 -36 416 2 119 -2 129 -59 148 -68 22 -136 61 -195 112 -65 57 -71 84 -23 100 23 8 33 5 55 -12 14 -12 37 -26 51 -32 14 -5 50 -35 81 -66 32 -30 62 -54 69 -51 8 2 12 67 15 218 4 230 22 425 61 655 18 108 63 285 77 303 12 15 33 16 42 2z m-2425 -869 c0 -5 -15 -25 -33 -45 -39 -42 -67 -122 -68 -197 -1 -30 -6 -83 -13 -119 -10 -60 -13 -65 -38 -68 -32 -4 -33 -1 -18 97 6 36 15 98 21 136 16 107 58 185 100 185 10 0 21 5 24 10 8 12 25 13 25 1z m704 -122 c47 -40 86 -76 86 -80 0 -5 9 -9 20 -9 13 0 27 14 40 40 11 22 33 46 49 55 26 13 34 13 71 0 23 -8 59 -29 81 -46 22 -17 46 -28 54 -25 11 4 15 -2 15 -23 0 -35 -19 -44 -51 -26 -60 33 -133 65 -149 65 -11 0 -30 -20 -49 -55 -32 -57 -61 -71 -89 -43 -10 10 -17 7 -35 -14 -33 -39 -58 -48 -136 -48 -90 0 -119 22 -146 109 -19 64 -17 88 15 139 19 30 23 32 79 32 58 0 60 -1 145 -71z m696 -89 c26 -19 30 -19 90 -3 51 13 73 14 111 5 27 -7 55 -9 63 -6 21 8 84 -14 127 -46 31 -22 49 -27 109 -28 80 -2 113 -15 108 -40 -3 -18 -16 -20 -137 -21 -55 -1 -71 3 -115 30 -42 27 -67 34 -141 41 -64 6 -105 5 -143 -3 -43 -10 -61 -10 -88 0 -20 7 -37 11 -38 9 -1 -1 -10 -16 -20 -31 -23 -38 -52 -33 -47 8 4 35 56 105 78 105 8 0 27 -9 43 -20z m2960 -388 c0 -36 -16 -52 -52 -52 -35 0 -38 30 -6 60 32 30 58 26 58 -8z"/>
 <path d="M4244 2097 c-5 -13 2 -98 35 -456 6 -70 11 -87 30 -102 13 -11 32 -19 42 -19 23 0 101 -18 154 -36 48 -16 153 -42 215 -54 25 -5 58 -13 73 -19 69 -27 77 4 17 67 -22 22 -40 44 -40 48 0 6 -101 123 -208 241 -25 28 -48 56 -50 62 -2 6 -36 44 -76 84 -40 39 -98 100 -129 135 -40 44 -59 59 -63 49z"/>
 <path d="M3018 1728 c7 -7 55 -13 134 -15 109 -2 120 -1 98 11 -33 19 -251 23 -232 4z"/>
 <path d="M2460 2435 c-18 -22 -5 -75 29 -115 28 -34 31 -35 99 -35 87 0 106 13 72 50 -13 14 -27 25 -32 25 -5 0 -33 20 -64 45 -58 47 -83 55 -104 30z"/>
 </g>

</svg>