<?xml version="1.0" encoding="utf-8"?>
<!-- Generator: Adobe Illustrator 19.0.0, SVG Export Plug-In . SVG Version: 6.00 Build 0)  -->
<svg version="1.1" id="Warstwa_1" xmlns="http://www.w3.org/2000/svg" xmlns:xlink="http://www.w3.org/1999/xlink" x="0px" y="0px"
	 viewBox="0 0 1000 1000" style="enable-background:new 0 0 1000 1000;" xml:space="preserve">
<style type="text/css">
	.st0{fill:#FFFFFF;}
</style>
<g id="XMLID_1_">
	<path id="XMLID_58_" class="st0" d="M128.2,609.8c0-115.6,0-231.2,0-346.9c257.8,0,515.7,0,773.8,0c0,115.6,0,231.2,0,346.9
		C644.1,609.8,386.2,609.8,128.2,609.8z M414,432.4c1.8-3.5,2.9-5.9,4.2-8.1c5.5-9.8,7.6-19.4-0.5-29.1
		c-4.8-5.8-10.4-10.1-17.8-11.9c-5.1-1.2-10.2-3-15.3-3.4c-10.5-0.8-21.1-1.4-31.7-1.1c-7.7,0.3-15.3,1.9-22.9,3.4
		c-8.7,1.8-17.4,3.5-25.7,6.3c-9.5,3.2-18.3,8.5-28,11c-15.4,4-28.4,12.9-41.9,20.3c-15.8,8.6-30,20-44.9,30.1
		c-2.7,1.8-5.7,3.2-8.2,5.2c-4,3.2-7.9,6.5-11.6,10c-6.1,6-12.4,11.9-17.9,18.5c-1.5,1.8-0.7,5.7-0.9,8.6c2.4,0,4.8,0.5,7.1,0.1
		c11.8-2,23.5-4.4,35.4-6.2c6.2-0.9,12.6-0.3,18.8-1.2c10.6-1.6,21-1.1,31.4,1.4c1.2,0.3,2.6-0.3,3.9-0.5c-1-2-2.2-3.5-3.5-3.7
		c-5.7-0.9-11.4-1.9-17.1-2c-6.2-0.2-12.3,0.5-18.5,0.9c-9,0.5-18,0.6-26.8,1.8c-7.1,1-14,3.5-21,5.1c-1.4,0.3-3-0.5-4.5-0.7
		c0.6-1.6,0.8-3.6,1.9-4.7c6.7-6.3,13.4-12.7,20.5-18.6c8-6.6,16.1-13.2,24.7-18.9c13.1-8.8,26.4-17.6,40.3-25
		c15-8,30.6-14.9,46.2-21.3c27.7-11.4,56.6-17.2,86.5-15.3c10.4,0.7,20.9,4.1,30.9,7.7c6.4,2.3,12.3,7.7,11.5,15.6
		c-0.5,5.6-2.6,11.4-5.4,16.3c-10.6,18.6-26.4,33.1-40.6,48.7c-1,1.1-1.4,2.6-2.2,3.9c1.5-0.5,3.5-0.6,4.6-1.6
		c12.5-11.4,25.9-22,34.6-37c1.1-2,3.1-3.5,4.3-4.9c2.9,3.3,4.8,7.3,7.7,8.4c8.6,3,17.8,3.5,26.9,2.3c8.3-1.1,16.6-2.2,24.9-3.7
		c10.2-1.8,20.4-3.4,30.3-6.1c15.2-4.1,30.2-9,45.3-13.5c3.8-1.1,5.4,0.6,4.4,4.5c-0.8,3-2.3,6-2.5,9c-0.8,13.5-1.1,27.1-1.7,40.6
		c0,0.7-0.1,1.3-0.1,2c0,4.2-2,6.6-6.2,7.7c-9,2.4-16.2,7.9-22.8,14.3c-1,1-1.2,2.7-1.8,4.1c1.8,0.7,3.5,1.7,5.3,1.8
		c1,0.1,2.2-1.3,3.2-2.1c5.4-4.3,10.7-8.7,16.2-12.8c1.1-0.8,3.2-1.2,4.4-0.6c0.8,0.4,1.3,2.5,1.2,3.9c-0.1,9.8-1.4,19.8-0.5,29.5
		c2,20.6,4.8,41.2,7.8,61.7c1,6.8,3.2,13.4,5.1,20.1c0.3,1.1,2,1.8,3.1,2.7c0.2-1.2,0.9-2.5,0.7-3.7c-3.3-19.1-7.4-38.1-9.7-57.3
		c-1.9-15.1-1.6-30.4-2.3-45.6c-0.1-2.3-0.5-4.6-0.9-6.8c-1.2-6.1,1.3-8.8,7.3-7c6.1,1.9,11.9,4.7,17.7,7.2
		c10.2,4.5,20.2,9.9,31.9,9.5c12.8-0.4,25.6-1.1,38.3-0.9c6.4,0.1,12.3-0.1,18.1-3.2c2.3-1.3,5.3-1.8,8-1.9
		c7.8-0.3,15.9,1.1,23.4-0.4c15-3.1,29.6-0.5,44.3,1c6.8,0.7,13.5,1.4,20.3,2.1c0.3-0.5,0.5-1,0.8-1.6c-1.5-1-2.9-2.6-4.6-3
		c-3.7-0.8-7.5-1-11.3-1.4c-10.8-1.2-21.6-3.3-32.4-3.5c-14.8-0.3-29.4,3.6-44.3,1.9c-1.5-0.2-3.1,0.8-4.6,1.5
		c-6.9,2.8-13.7,5.3-21.6,4.1c-6.4-0.9-13.1-0.8-19.7-0.3c-13.6,1-27,1.9-39.8-4.7c-7.3-3.7-15.2-6.3-22.6-9.9
		c-2.4-1.2-10,1.6-5.9-6.1c0-0.1-0.3-0.2-0.3-0.4c-0.8-3-2.3-6.1-2.1-9.1c1-14.3,2.6-28.5,3.9-42.8c0.5-5.8,2.4-7.6,8.2-8.6
		c4.5-0.7,9-1.8,13.4-3c10.8-2.9,21.5-5.9,32.3-8.7c1.2-0.3,3.4,0.2,3.8,1c0.5,0.9,0,3-0.8,4c-3.3,4.4-6.8,8.6-10.4,12.8
		c-4.5,5.3-9.1,10.6-13.5,15.9c-3.6,4.3-6.8,8.8-10.5,12.9c-6.9,7.4-14.2,14.4-21.2,21.6c-1,1-1.4,2.6-2.1,3.9
		c0.4,0.4,0.8,0.7,1.2,1.1c2.5-1.7,5.4-3,7.5-5.1c4.5-4.5,8.5-9.3,12.7-14c12.6-14.4,25.2-28.7,37.7-43.3c1.5-1.7,3-4.9,2.4-6.7
		c-1.9-6,1.9-5.9,5.6-6.4c7.8-1.1,15.6-2.1,23.4-3.4c8.5-1.4,16.8-3.5,25.3-4.5c16-2,32.1-3.5,48.2-5c6.7-0.6,13.5-0.9,20.3-0.9
		c6.8,0,13.7,0.5,20.5,0.7c5.6,0.1,11.2-0.7,16.6,0.2c13.2,2.2,26.5,4.6,39.5,8.1c16.7,4.6,30.5,14,40.2,28.5
		c11.4,17.1,14.1,36.1,10.1,56c-3.6,17.8-11.4,34-20.6,49.6c-1.8,3.1-3.3,6.4-5,9.6c0.6,0.3,1.2,0.6,1.8,0.9
		c3.4-6.1,6.8-12.2,10.3-18.3c6.5-11.3,11.8-23,15.5-35.5c5.8-19.4,3.8-37.9-4.3-55.8c-8.4-18.6-23-30.8-42-38.3
		c-19.1-7.5-39.1-9.9-59.2-10.8c-17.2-0.7-34.6,0.2-51.8,0.9c-11.2,0.5-22.4,1.6-33.5,3.1c-14,1.9-27.9,4.4-41.8,6.8
		c-24.8,4.2-49.4,9.3-73.3,17.5c-1.4,0.5-3.1,0.2-5.1,0.3c0.3-2.5,0.5-4.3,0.8-6.1c0.8-5.4,1.8-10.7,2.4-16.1
		c0.9-8.7,0.9-17.5,2.2-26.1c2.2-14.2,5.2-28.3,7.8-42.5c1.9-10.3,3.8-20.6,5.3-31c0.3-1.8-1.4-3.9-2.2-5.9c-1,1.4-2.2,2.8-3.1,4.3
		c-0.5,0.8-0.7,1.8-0.9,2.8c-1.8,10.7-3.4,21.4-5.3,32.1c-2.2,12.8-5.1,25.5-6.6,38.3c-1.9,15.9-2.7,31.9-4.3,47.8
		c-0.2,1.9-1.7,4.4-3.4,5.3c-2.3,1.4-5.3,1.5-8,2.2c-19.8,5.2-39.7,10.4-59.6,15.5c-3.5,0.9-7.8,2.5-10.6,1.2
		c-6-2.9-12-1.4-17.9-1.6c-6.5-0.2-13-0.1-19.5,0.1C428.8,431.6,422,432,414,432.4z M384.3,485.3c-3.3,1.2-7.3,1.7-9.6,4
		c-2.5,2.4-3.7,6.4-5,9.8c-1.6,4,0.4,12.3,3.8,13.1c4.2,0.9,9.4,0.8,13.1-1c4.9-2.4,8.9-6.8,13.1-10.6c5.4-4.9,6-4.9,9.4,1.5
		c2.8,5.2,5.9,6.6,11.4,4.2c4-1.8,7.6-4.5,11.2-7c1-0.7,1.6-2.1,2.4-3.1c-1.3-0.1-2.9-0.7-4-0.2c-2.6,1-4.9,2.5-7.4,3.8
		c-8.4,4.2-8.2,4.1-13.3-3.8c-1.7-2.6-3.1-7.1-7.8-3.1c-0.5,0.4-2.8-0.2-3.3-1C394.9,486.8,390.1,486,384.3,485.3z M523.4,487.6
		c-0.1-0.6-0.2-1.3-0.4-1.9c-1.6-0.2-3.2-0.3-4.9-0.6c-6.6-1.2-13.1-2-19,2.5c-4.1,3.1-8.9,3.7-14,4c-6.4,0.4-12.6,0-19-0.7
		c-5.1-0.6-10.5,2.6-13.5-5c-2.6,6,1.5,8.3,3.5,11.4c1.4,2.1,3.1,2.5,5.4,0.7c1.6-1.2,4-2.5,5.6-2.1c6.6,1.3,13,3.9,19.7,0.6
		c0.5-0.3,1.3,0.2,2,0.1c3.3-0.7,7.3-0.5,9.7-2.3c5.3-4,10.8-5.3,17.1-5C518.3,489.3,520.9,488.1,523.4,487.6z M317.6,517.8
		c0.5-0.4,0.9-0.8,1.4-1.3c-1.8-4-4.1-7.9-5.2-12.1c-1.1-4.4-0.8-9.1-1.4-13.7c-0.5-3.9-1.1-7.8-2.1-11.6c-0.3-1.1-2.2-1.8-3.3-2.7
		c-0.4,1.3-1.3,2.6-1.2,3.8c0.4,4.4,1,8.8,1.9,13.1c1.2,5.9,2.4,11.8,4.4,17.5C313.1,513.4,315.7,515.4,317.6,517.8z M757.8,462.6
		c1-7.3-0.4-8.6-7.2-7.5C753.1,457.6,755,459.6,757.8,462.6z"/>
	<path id="XMLID_55_" d="M414,432.4c8.1-0.4,14.9-0.8,21.6-1c6.5-0.2,13-0.3,19.5-0.1c6,0.2,11.9-1.3,17.9,1.6
		c2.7,1.3,7.1-0.3,10.6-1.2c19.9-5.1,39.7-10.3,59.6-15.5c2.7-0.7,5.7-0.9,8-2.2c1.6-1,3.2-3.4,3.4-5.3c1.6-15.9,2.4-31.9,4.3-47.8
		c1.6-12.8,4.4-25.5,6.6-38.3c1.8-10.7,3.5-21.4,5.3-32.1c0.2-1,0.4-2,0.9-2.8c0.9-1.5,2.1-2.9,3.1-4.3c0.8,2,2.4,4.1,2.2,5.9
		c-1.5,10.4-3.4,20.7-5.3,31c-2.6,14.2-5.6,28.3-7.8,42.5c-1.3,8.6-1.4,17.4-2.2,26.1c-0.5,5.4-1.6,10.7-2.4,16.1
		c-0.3,1.8-0.5,3.6-0.8,6.1c2-0.1,3.7,0.2,5.1-0.3c23.9-8.3,48.5-13.3,73.3-17.5c13.9-2.4,27.8-4.9,41.8-6.8
		c11.1-1.5,22.3-2.6,33.5-3.1c17.3-0.7,34.6-1.6,51.8-0.9c20.1,0.8,40.1,3.3,59.2,10.8c18.9,7.5,33.6,19.7,42,38.3
		c8,17.9,10.1,36.4,4.3,55.8c-3.8,12.6-9,24.3-15.5,35.5c-3.5,6-6.9,12.2-10.3,18.3c-0.6-0.3-1.2-0.6-1.8-0.9c1.7-3.2,3.2-6.5,5-9.6
		c9.2-15.6,17-31.7,20.6-49.6c4-19.9,1.3-38.9-10.1-56c-9.7-14.6-23.6-24-40.2-28.5c-12.9-3.5-26.2-5.9-39.5-8.1
		c-5.4-0.9-11.1-0.1-16.6-0.2c-6.8-0.2-13.7-0.7-20.5-0.7c-6.8,0-13.6,0.2-20.3,0.9c-16.1,1.5-32.2,3-48.2,5
		c-8.5,1-16.9,3.1-25.3,4.5c-7.8,1.3-15.6,2.3-23.4,3.4c-3.8,0.5-7.5,0.4-5.6,6.4c0.6,1.8-1,5-2.4,6.7
		c-12.4,14.5-25.1,28.9-37.7,43.3c-4.2,4.7-8.2,9.6-12.7,14c-2.1,2.1-5,3.4-7.5,5.1c-0.4-0.4-0.8-0.7-1.2-1.1
		c0.7-1.3,1.1-2.9,2.1-3.9c7-7.3,14.3-14.3,21.2-21.6c3.8-4,7-8.6,10.5-12.9c4.5-5.3,9.1-10.6,13.5-15.9c3.5-4.2,7.1-8.4,10.4-12.8
		c0.8-1,1.3-3,0.8-4c-0.4-0.8-2.7-1.3-3.8-1c-10.8,2.8-21.5,5.9-32.3,8.7c-4.4,1.2-8.9,2.3-13.4,3c-5.8,0.9-7.7,2.8-8.2,8.6
		c-1.3,14.3-2.8,28.5-3.9,42.8c-0.2,3,1.3,6,2.1,9.1c0,0.1,0.3,0.3,0.3,0.4c-4.1,7.7,3.5,4.9,5.9,6.1c7.4,3.6,15.3,6.1,22.6,9.9
		c12.8,6.6,26.2,5.7,39.8,4.7c6.5-0.5,13.2-0.6,19.7,0.3c7.9,1.1,14.7-1.4,21.6-4.1c1.5-0.6,3.2-1.6,4.6-1.5
		c14.9,1.7,29.5-2.3,44.3-1.9c10.8,0.2,21.6,2.3,32.4,3.5c3.8,0.4,7.6,0.6,11.3,1.4c1.7,0.4,3.1,1.9,4.6,3c-0.3,0.5-0.5,1-0.8,1.6
		c-6.8-0.7-13.5-1.4-20.3-2.1c-14.7-1.5-29.3-4.1-44.3-1c-7.5,1.6-15.6,0.2-23.4,0.4c-2.7,0.1-5.7,0.6-8,1.9
		c-5.8,3.1-11.7,3.3-18.1,3.2c-12.8-0.2-25.6,0.4-38.3,0.9c-11.7,0.4-21.7-5-31.9-9.5c-5.8-2.6-11.6-5.3-17.7-7.2
		c-5.9-1.9-8.4,0.9-7.3,7c0.4,2.3,0.8,4.5,0.9,6.8c0.7,15.2,0.4,30.5,2.3,45.6c2.4,19.2,6.5,38.2,9.7,57.3c0.2,1.2-0.4,2.4-0.7,3.7
		c-1.1-0.9-2.8-1.6-3.1-2.7c-1.9-6.6-4.1-13.3-5.1-20.1c-2.9-20.5-5.8-41.1-7.8-61.7c-0.9-9.7,0.3-19.7,0.5-29.5
		c0-1.3-0.4-3.5-1.2-3.9c-1.2-0.5-3.3-0.2-4.4,0.6c-5.5,4.1-10.8,8.5-16.2,12.8c-1,0.8-2.2,2.1-3.2,2.1c-1.8-0.1-3.5-1.2-5.3-1.8
		c0.6-1.4,0.8-3.1,1.8-4.1c6.6-6.4,13.8-11.9,22.8-14.3c4.2-1.1,6.2-3.4,6.2-7.7c0-0.7,0.1-1.3,0.1-2c0.5-13.5,0.9-27.1,1.7-40.6
		c0.2-3,1.7-6,2.5-9c1-3.8-0.6-5.6-4.4-4.5c-15.1,4.5-30.1,9.4-45.3,13.5c-9.9,2.7-20.2,4.3-30.3,6.1c-8.2,1.5-16.6,2.6-24.9,3.7
		c-9.1,1.2-18.3,0.8-26.9-2.3c-2.9-1-4.8-5.1-7.7-8.4c-1.2,1.4-3.2,2.9-4.3,4.9c-8.7,15-22.1,25.6-34.6,37c-1.1,1-3,1.1-4.6,1.6
		c0.7-1.3,1.2-2.8,2.2-3.9c14.3-15.6,30-30.1,40.6-48.7c2.8-4.9,4.8-10.7,5.4-16.3c0.8-7.9-5.1-13.2-11.5-15.6
		c-9.9-3.6-20.4-7.1-30.9-7.7c-29.9-1.9-58.9,3.9-86.5,15.3c-15.7,6.5-31.3,13.4-46.2,21.3c-13.9,7.4-27.2,16.2-40.3,25
		c-8.6,5.7-16.7,12.3-24.7,18.9c-7.1,5.9-13.8,12.2-20.5,18.6c-1.1,1.1-1.3,3.1-1.9,4.7c1.5,0.3,3.1,1,4.5,0.7
		c7-1.6,13.9-4.1,21-5.1c8.9-1.2,17.9-1.3,26.8-1.8c6.2-0.4,12.3-1,18.5-0.9c5.7,0.2,11.4,1.1,17.1,2c1.4,0.2,2.5,1.6,3.5,3.7
		c-1.3,0.2-2.7,0.8-3.9,0.5c-10.4-2.6-20.8-3-31.4-1.4c-6.2,0.9-12.6,0.3-18.8,1.2c-11.8,1.8-23.6,4.2-35.4,6.2
		c-2.3,0.4-4.7,0-7.1-0.1c0.2-2.9-0.6-6.8,0.9-8.6c5.5-6.5,11.7-12.5,17.9-18.5c3.7-3.6,7.6-6.9,11.6-10c2.5-2,5.5-3.4,8.2-5.2
		c14.9-10.1,29.1-21.6,44.9-30.1c13.6-7.4,26.5-16.2,41.9-20.3c9.6-2.5,18.5-7.9,28-11c8.4-2.8,17.1-4.6,25.7-6.3
		c7.5-1.5,15.2-3.2,22.9-3.4c10.5-0.4,21.2,0.2,31.7,1.1c5.2,0.4,10.2,2.1,15.3,3.4c7.4,1.8,13,6.1,17.8,11.9
		c8.1,9.7,6,19.3,0.5,29.1C416.9,426.5,415.8,428.8,414,432.4z M456.5,434.8c-8.4,0-16.7-0.1-24.9,0.1c-0.7,0-1.3,1.5-2.2,2.4
		C438.8,439.8,452.5,438.5,456.5,434.8z"/>
	<path id="XMLID_52_" d="M384.3,485.3c5.8,0.7,10.6,1.6,13.9,6.6c0.5,0.8,2.8,1.4,3.3,1c4.7-4,6.2,0.6,7.8,3.1
		c5.1,7.8,4.9,7.9,13.3,3.8c2.5-1.2,4.8-2.8,7.4-3.8c1.1-0.4,2.6,0.1,4,0.2c-0.8,1.1-1.4,2.4-2.4,3.1c-3.6,2.5-7.2,5.2-11.2,7
		c-5.5,2.4-8.6,1-11.4-4.2c-3.4-6.4-4-6.4-9.4-1.5c-4.2,3.8-8.1,8.2-13.1,10.6c-3.7,1.8-8.9,1.9-13.1,1c-3.5-0.8-5.4-9-3.8-13.1
		c1.4-3.4,2.5-7.4,5-9.8C377,487,381,486.5,384.3,485.3z M388.5,490.4c-8,0.9-11.9,3.3-13.9,10.5c-0.6,2.2,0.3,4.8,0.5,7.3
		c2.6-0.3,5.5,0.1,7.6-1c3-1.5,5.6-4.1,8.2-6.4c2.3-2,4.4-4.3,6.6-6.5C394.5,493,391.5,491.7,388.5,490.4z"/>
	<path id="XMLID_51_" d="M523.4,487.6c-2.5,0.6-5.1,1.7-7.5,1.5c-6.4-0.4-11.9,0.9-17.1,5c-2.4,1.8-6.4,1.6-9.7,2.3
		c-0.6,0.1-1.4-0.3-2-0.1c-6.7,3.3-13.1,0.7-19.7-0.6c-1.7-0.3-4.1,0.9-5.6,2.1c-2.3,1.8-4,1.4-5.4-0.7c-2-3.1-6.2-5.5-3.5-11.4
		c2.9,7.6,8.4,4.4,13.5,5c6.4,0.7,12.5,1.2,19,0.7c5.1-0.3,9.9-0.9,14-4c5.9-4.4,12.4-3.7,19-2.5c1.6,0.3,3.2,0.4,4.9,0.6
		C523.1,486.3,523.2,486.9,523.4,487.6z"/>
	<path id="XMLID_50_" d="M317.6,517.8c-1.9-2.3-4.6-4.4-5.5-7.1c-2-5.7-3.2-11.6-4.4-17.5c-0.9-4.3-1.5-8.7-1.9-13.1
		c-0.1-1.2,0.8-2.5,1.2-3.8c1.2,0.9,3,1.6,3.3,2.7c1,3.8,1.6,7.7,2.1,11.6c0.6,4.6,0.3,9.3,1.4,13.7c1,4.2,3.4,8.1,5.2,12.1
		C318.6,516.9,318.1,517.3,317.6,517.8z"/>
	<path id="XMLID_49_" d="M757.8,462.6c-2.8-2.9-4.7-4.9-7.2-7.5C757.4,454,758.8,455.3,757.8,462.6z"/>
	<path id="XMLID_48_" class="st0" d="M456.5,434.8c-4,3.7-17.7,5-27.1,2.5c0.8-1,1.5-2.4,2.2-2.4
		C439.8,434.8,448.1,434.8,456.5,434.8z"/>
	<path id="XMLID_47_" class="st0" d="M388.5,490.4c3,1.3,6,2.6,9,3.9c-2.2,2.2-4.3,4.5-6.6,6.5c-2.6,2.3-5.2,4.8-8.2,6.4
		c-2.2,1.1-5.1,0.7-7.6,1c-0.2-2.4-1.1-5.1-0.5-7.3C376.6,493.7,380.4,491.3,388.5,490.4z"/>
</g>
<g id="XMLID_3_">
	<path id="XMLID_15_" class="st0" d="M130.4,604.7c0-115.6,0-231.2,0-346.9c257.8,0,515.7,0,773.8,0c0,115.6,0,231.2,0,346.9
		C646.4,604.7,388.4,604.7,130.4,604.7z M416.2,427.3c1.8-3.5,2.9-5.9,4.2-8.1c5.5-9.8,7.6-19.4-0.5-29.1
		c-4.8-5.8-10.4-10.1-17.8-11.9c-5.1-1.2-10.2-3-15.3-3.4c-10.5-0.8-21.1-1.4-31.7-1.1c-7.7,0.3-15.3,1.9-22.9,3.4
		c-8.7,1.8-17.4,3.5-25.7,6.3c-9.5,3.2-18.3,8.5-28,11c-15.4,4-28.4,12.9-41.9,20.3c-15.8,8.6-30,20-44.9,30.1
		c-2.7,1.8-5.7,3.2-8.2,5.2c-4,3.2-7.9,6.5-11.6,10c-6.1,6-12.4,11.9-17.9,18.5c-1.5,1.8-0.7,5.7-0.9,8.6c2.4,0,4.8,0.5,7.1,0.1
		c11.8-2,23.5-4.4,35.4-6.2c6.2-0.9,12.6-0.3,18.8-1.2c10.6-1.6,21-1.1,31.4,1.4c1.2,0.3,2.6-0.3,3.9-0.5c-1-2-2.2-3.5-3.5-3.7
		c-5.7-0.9-11.4-1.9-17.1-2c-6.2-0.2-12.3,0.5-18.5,0.9c-9,0.5-18,0.6-26.8,1.8c-7.1,1-14,3.5-21,5.1c-1.4,0.3-3-0.5-4.5-0.7
		c0.6-1.6,0.8-3.6,1.9-4.7c6.7-6.3,13.4-12.7,20.5-18.6c8-6.6,16.1-13.2,24.7-18.9c13.1-8.8,26.4-17.6,40.3-25
		c15-8,30.6-14.9,46.2-21.3c27.7-11.4,56.6-17.2,86.5-15.3c10.4,0.7,20.9,4.1,30.9,7.7c6.4,2.3,12.3,7.7,11.5,15.6
		c-0.5,5.6-2.6,11.4-5.4,16.3c-10.6,18.6-26.4,33.1-40.6,48.7c-1,1.1-1.4,2.6-2.2,3.9c1.5-0.5,3.5-0.6,4.6-1.6
		c12.5-11.4,25.9-22,34.6-37c1.1-2,3.1-3.5,4.3-4.9c2.9,3.3,4.8,7.3,7.7,8.4c8.6,3,17.8,3.5,26.9,2.3c8.3-1.1,16.6-2.2,24.9-3.7
		c10.2-1.8,20.4-3.4,30.3-6.1c15.2-4.1,30.2-9,45.3-13.5c3.8-1.1,5.4,0.6,4.4,4.5c-0.8,3-2.3,6-2.5,9c-0.8,13.5-1.1,27.1-1.7,40.6
		c0,0.7-0.1,1.3-0.1,2c0,4.2-2,6.6-6.2,7.7c-9,2.4-16.2,7.9-22.8,14.3c-1,1-1.2,2.7-1.8,4.1c1.8,0.7,3.5,1.7,5.3,1.8
		c1,0.1,2.2-1.3,3.2-2.1c5.4-4.3,10.7-8.7,16.2-12.8c1.1-0.8,3.2-1.2,4.4-0.6c0.8,0.4,1.3,2.5,1.2,3.9c-0.1,9.8-1.4,19.8-0.5,29.5
		c2,20.6,4.8,41.2,7.8,61.7c1,6.8,3.2,13.4,5.1,20.1c0.3,1.1,2,1.8,3.1,2.7c0.2-1.2,0.9-2.5,0.7-3.7c-3.3-19.1-7.4-38.1-9.7-57.3
		c-1.9-15.1-1.6-30.4-2.3-45.6c-0.1-2.3-0.5-4.6-0.9-6.8c-1.2-6.1,1.3-8.8,7.3-7c6.1,1.9,11.9,4.7,17.7,7.2
		c10.2,4.5,20.2,9.9,31.9,9.5c12.8-0.4,25.6-1.1,38.3-0.9c6.4,0.1,12.3-0.1,18.1-3.2c2.3-1.3,5.3-1.8,8-1.9
		c7.8-0.3,15.9,1.1,23.4-0.4c15-3.1,29.6-0.5,44.3,1c6.8,0.7,13.5,1.4,20.3,2.1c0.3-0.5,0.5-1,0.8-1.6c-1.5-1-2.9-2.6-4.6-3
		c-3.7-0.8-7.5-1-11.3-1.4c-10.8-1.2-21.6-3.3-32.4-3.5c-14.8-0.3-29.4,3.6-44.3,1.9c-1.5-0.2-3.1,0.8-4.6,1.5
		c-6.9,2.8-13.7,5.3-21.6,4.1c-6.4-0.9-13.1-0.8-19.7-0.3c-13.6,1-27,1.9-39.8-4.7c-7.3-3.7-15.2-6.3-22.6-9.9
		c-2.4-1.2-10,1.6-5.9-6.1c0-0.1-0.3-0.2-0.3-0.4c-0.8-3-2.3-6.1-2.1-9.1c1-14.3,2.6-28.5,3.9-42.8c0.5-5.8,2.4-7.6,8.2-8.6
		c4.5-0.7,9-1.8,13.4-3c10.8-2.9,21.5-5.9,32.3-8.7c1.2-0.3,3.4,0.2,3.8,1c0.5,0.9,0,3-0.8,4c-3.3,4.4-6.8,8.6-10.4,12.8
		c-4.5,5.3-9.1,10.6-13.5,15.9c-3.6,4.3-6.8,8.8-10.5,12.9c-6.9,7.4-14.2,14.4-21.2,21.6c-1,1-1.4,2.6-2.1,3.9
		c0.4,0.4,0.8,0.7,1.2,1.1c2.5-1.7,5.4-3,7.5-5.1c4.5-4.5,8.5-9.3,12.7-14c12.6-14.4,25.2-28.7,37.7-43.3c1.5-1.7,3-4.9,2.4-6.7
		c-1.9-6,1.9-5.9,5.6-6.4c7.8-1.1,15.6-2.1,23.4-3.4c8.5-1.4,16.8-3.5,25.3-4.5c16-2,32.1-3.5,48.2-5c6.7-0.6,13.5-0.9,20.3-0.9
		c6.8,0,13.7,0.5,20.5,0.7c5.6,0.1,11.2-0.7,16.6,0.2c13.2,2.2,26.5,4.6,39.5,8.1c16.7,4.6,30.5,14,40.2,28.5
		c11.4,17.1,14.1,36.1,10.1,56c-3.6,17.8-11.4,34-20.6,49.6c-1.8,3.1-3.3,6.4-5,9.6c0.6,0.3,1.2,0.6,1.8,0.9
		c3.4-6.1,6.8-12.2,10.3-18.3c6.5-11.3,11.8-23,15.5-35.5c5.8-19.4,3.8-37.9-4.3-55.8c-8.4-18.6-23-30.8-42-38.3
		c-19.1-7.5-39.1-9.9-59.2-10.8c-17.2-0.7-34.6,0.2-51.8,0.9c-11.2,0.5-22.4,1.6-33.5,3.1c-14,1.9-27.9,4.4-41.8,6.8
		c-24.8,4.2-49.4,9.3-73.3,17.5c-1.4,0.5-3.1,0.2-5.1,0.3c0.3-2.5,0.5-4.3,0.8-6.1c0.8-5.4,1.8-10.7,2.4-16.1
		c0.9-8.7,0.9-17.5,2.2-26.1c2.2-14.2,5.2-28.3,7.8-42.5c1.9-10.3,3.8-20.6,5.3-31c0.3-1.8-1.4-3.9-2.2-5.9c-1,1.4-2.2,2.8-3.1,4.3
		c-0.5,0.8-0.7,1.8-0.9,2.8c-1.8,10.7-3.4,21.4-5.3,32.1c-2.2,12.8-5.1,25.5-6.6,38.3c-1.9,15.9-2.7,31.9-4.3,47.8
		c-0.2,1.9-1.7,4.4-3.4,5.3c-2.3,1.4-5.3,1.5-8,2.2c-19.8,5.2-39.7,10.4-59.6,15.5c-3.5,0.9-7.8,2.5-10.6,1.2
		c-6-2.9-12-1.4-17.9-1.6c-6.5-0.2-13-0.1-19.5,0.1C431,426.6,424.2,427,416.2,427.3z M386.5,480.2c-3.3,1.2-7.3,1.7-9.6,4
		c-2.5,2.4-3.7,6.4-5,9.8c-1.6,4,0.4,12.3,3.8,13.1c4.2,0.9,9.4,0.8,13.1-1c4.9-2.4,8.9-6.8,13.1-10.6c5.4-4.9,6-4.9,9.4,1.5
		c2.8,5.2,5.9,6.6,11.4,4.2c4-1.8,7.6-4.5,11.2-7c1-0.7,1.6-2.1,2.4-3.1c-1.3-0.1-2.9-0.7-4-0.2c-2.6,1-4.9,2.5-7.4,3.8
		c-8.4,4.2-8.2,4.1-13.3-3.8c-1.7-2.6-3.1-7.1-7.8-3.1c-0.5,0.4-2.8-0.2-3.3-1C397.1,481.8,392.3,480.9,386.5,480.2z M525.6,482.6
		c-0.1-0.6-0.2-1.3-0.4-1.9c-1.6-0.2-3.2-0.3-4.9-0.6c-6.6-1.2-13.1-2-19,2.5c-4.1,3.1-8.9,3.7-14,4c-6.4,0.4-12.6,0-19-0.7
		c-5.1-0.6-10.5,2.6-13.5-5c-2.6,6,1.5,8.3,3.5,11.4c1.4,2.1,3.1,2.5,5.4,0.7c1.6-1.2,4-2.5,5.6-2.1c6.6,1.3,13,3.9,19.7,0.6
		c0.5-0.3,1.3,0.2,2,0.1c3.3-0.7,7.3-0.5,9.7-2.3c5.3-4,10.8-5.3,17.1-5C520.5,484.2,523.1,483.1,525.6,482.6z M319.8,512.7
		c0.5-0.4,0.9-0.8,1.4-1.3c-1.8-4-4.1-7.9-5.2-12.1c-1.1-4.4-0.8-9.1-1.4-13.7c-0.5-3.9-1.1-7.8-2.1-11.6c-0.3-1.1-2.2-1.8-3.3-2.7
		c-0.4,1.3-1.3,2.6-1.2,3.8c0.4,4.4,1,8.8,1.9,13.1c1.2,5.9,2.4,11.8,4.4,17.5C315.3,508.3,318,510.4,319.8,512.7z M760,457.5
		c1-7.3-0.4-8.6-7.2-7.5C755.3,452.6,757.2,454.6,760,457.5z"/>
	<path id="XMLID_12_" d="M416.2,427.3c8.1-0.4,14.9-0.8,21.6-1c6.5-0.2,13-0.3,19.5-0.1c6,0.2,11.9-1.3,17.9,1.6
		c2.7,1.3,7.1-0.3,10.6-1.2c19.9-5.1,39.7-10.3,59.6-15.5c2.7-0.7,5.7-0.9,8-2.2c1.6-1,3.2-3.4,3.4-5.3c1.6-15.9,2.4-31.9,4.3-47.8
		c1.6-12.8,4.4-25.5,6.6-38.3c1.8-10.7,3.5-21.4,5.3-32.1c0.2-1,0.4-2,0.9-2.8c0.9-1.5,2.1-2.9,3.1-4.3c0.8,2,2.4,4.1,2.2,5.9
		c-1.5,10.4-3.4,20.7-5.3,31c-2.6,14.2-5.6,28.3-7.8,42.5c-1.3,8.6-1.4,17.4-2.2,26.1c-0.5,5.4-1.6,10.7-2.4,16.1
		c-0.3,1.8-0.5,3.6-0.8,6.1c2-0.1,3.7,0.2,5.1-0.3c23.9-8.3,48.5-13.3,73.3-17.5c13.9-2.4,27.8-4.9,41.8-6.8
		c11.1-1.5,22.3-2.6,33.5-3.1c17.3-0.7,34.6-1.6,51.8-0.9c20.1,0.8,40.1,3.3,59.2,10.8c18.9,7.5,33.6,19.7,42,38.3
		c8,17.9,10.1,36.4,4.3,55.8c-3.8,12.6-9,24.3-15.5,35.5c-3.5,6-6.9,12.2-10.3,18.3c-0.6-0.3-1.2-0.6-1.8-0.9c1.7-3.2,3.2-6.5,5-9.6
		c9.2-15.6,17-31.7,20.6-49.6c4-19.9,1.3-38.9-10.1-56c-9.7-14.6-23.6-24-40.2-28.5c-12.9-3.5-26.2-5.9-39.5-8.1
		c-5.4-0.9-11.1-0.1-16.6-0.2c-6.8-0.2-13.7-0.7-20.5-0.7c-6.8,0-13.6,0.2-20.3,0.9c-16.1,1.5-32.2,3-48.2,5
		c-8.5,1-16.9,3.1-25.3,4.5c-7.8,1.3-15.6,2.3-23.4,3.4c-3.8,0.5-7.5,0.4-5.6,6.4c0.6,1.8-1,5-2.4,6.7
		c-12.4,14.5-25.1,28.9-37.7,43.3c-4.2,4.7-8.2,9.6-12.7,14c-2.1,2.1-5,3.4-7.5,5.1c-0.4-0.4-0.8-0.7-1.2-1.1
		c0.7-1.3,1.1-2.9,2.1-3.9c7-7.3,14.3-14.3,21.2-21.6c3.8-4,7-8.6,10.5-12.9c4.5-5.3,9.1-10.6,13.5-15.9c3.5-4.2,7.1-8.4,10.4-12.8
		c0.8-1,1.3-3,0.8-4c-0.4-0.8-2.7-1.3-3.8-1c-10.8,2.8-21.5,5.9-32.3,8.7c-4.4,1.2-8.9,2.3-13.4,3c-5.8,0.9-7.7,2.8-8.2,8.6
		c-1.3,14.3-2.8,28.5-3.9,42.8c-0.2,3,1.3,6,2.1,9.1c0,0.1,0.3,0.3,0.3,0.4c-4.1,7.7,3.5,4.9,5.9,6.1c7.4,3.6,15.3,6.1,22.6,9.9
		c12.8,6.6,26.2,5.7,39.8,4.7c6.5-0.5,13.2-0.6,19.7,0.3c7.9,1.1,14.7-1.4,21.6-4.1c1.5-0.6,3.2-1.6,4.6-1.5
		c14.9,1.7,29.5-2.3,44.3-1.9c10.8,0.2,21.6,2.3,32.4,3.5c3.8,0.4,7.6,0.6,11.3,1.4c1.7,0.4,3.1,1.9,4.6,3c-0.3,0.5-0.5,1-0.8,1.6
		c-6.8-0.7-13.5-1.4-20.3-2.1c-14.7-1.5-29.3-4.1-44.3-1c-7.5,1.6-15.6,0.2-23.4,0.4c-2.7,0.1-5.7,0.6-8,1.9
		c-5.8,3.1-11.7,3.3-18.1,3.2c-12.8-0.2-25.6,0.4-38.3,0.9c-11.7,0.4-21.7-5-31.9-9.5c-5.8-2.6-11.6-5.3-17.7-7.2
		c-5.9-1.9-8.4,0.9-7.3,7c0.4,2.3,0.8,4.5,0.9,6.8c0.7,15.2,0.4,30.5,2.3,45.6c2.4,19.2,6.5,38.2,9.7,57.3c0.2,1.2-0.4,2.4-0.7,3.7
		c-1.1-0.9-2.8-1.6-3.1-2.7c-1.9-6.6-4.1-13.3-5.1-20.1c-2.9-20.5-5.8-41.1-7.8-61.7c-0.9-9.7,0.3-19.7,0.5-29.5
		c0-1.3-0.4-3.5-1.2-3.9c-1.2-0.5-3.3-0.2-4.4,0.6c-5.5,4.1-10.8,8.5-16.2,12.8c-1,0.8-2.2,2.1-3.2,2.1c-1.8-0.1-3.5-1.2-5.3-1.8
		c0.6-1.4,0.8-3.1,1.8-4.1c6.6-6.4,13.8-11.9,22.8-14.3c4.2-1.1,6.2-3.4,6.2-7.7c0-0.7,0.1-1.3,0.1-2c0.5-13.5,0.9-27.1,1.7-40.6
		c0.2-3,1.7-6,2.5-9c1-3.8-0.6-5.6-4.4-4.5C536,419,521,424,505.8,428.1c-9.9,2.7-20.2,4.3-30.3,6.1c-8.2,1.5-16.6,2.6-24.9,3.7
		c-9.1,1.2-18.3,0.8-26.9-2.3c-2.9-1-4.8-5.1-7.7-8.4c-1.2,1.4-3.2,2.9-4.3,4.9c-8.7,15-22.1,25.6-34.6,37c-1.1,1-3,1.1-4.6,1.6
		c0.7-1.3,1.2-2.8,2.2-3.9c14.3-15.6,30-30.1,40.6-48.7c2.8-4.9,4.8-10.7,5.4-16.3c0.8-7.9-5.1-13.2-11.5-15.6
		c-9.9-3.6-20.4-7.1-30.9-7.7c-29.9-1.9-58.9,3.9-86.5,15.3c-15.7,6.5-31.3,13.4-46.2,21.3c-13.9,7.4-27.2,16.2-40.3,25
		c-8.6,5.7-16.7,12.3-24.7,18.9c-7.1,5.9-13.8,12.2-20.5,18.6c-1.1,1.1-1.3,3.1-1.9,4.7c1.5,0.3,3.1,1,4.5,0.7
		c7-1.6,13.9-4.1,21-5.1c8.9-1.2,17.9-1.3,26.8-1.8c6.2-0.4,12.3-1,18.5-0.9c5.7,0.2,11.4,1.1,17.1,2c1.4,0.2,2.5,1.6,3.5,3.7
		c-1.3,0.2-2.7,0.8-3.9,0.5c-10.4-2.6-20.8-3-31.4-1.4c-6.2,0.9-12.6,0.3-18.8,1.2c-11.8,1.8-23.6,4.2-35.4,6.2
		c-2.3,0.4-4.7,0-7.1-0.1c0.2-2.9-0.6-6.8,0.9-8.6c5.5-6.5,11.7-12.5,17.9-18.5c3.7-3.6,7.6-6.9,11.6-10c2.5-2,5.5-3.4,8.2-5.2
		c14.9-10.1,29.1-21.6,44.9-30.1c13.6-7.4,26.5-16.2,41.9-20.3c9.6-2.5,18.5-7.9,28-11c8.4-2.8,17.1-4.6,25.7-6.3
		c7.5-1.5,15.2-3.2,22.9-3.4c10.5-0.4,21.2,0.2,31.7,1.1c5.2,0.4,10.2,2.1,15.3,3.4c7.4,1.8,13,6.1,17.8,11.9
		c8.1,9.7,6,19.3,0.5,29.1C419.1,421.5,418,423.8,416.2,427.3z M458.7,429.8c-8.4,0-16.7-0.1-24.9,0.1c-0.7,0-1.3,1.5-2.2,2.4
		C441,434.7,454.7,433.4,458.7,429.8z"/>
	<path id="XMLID_9_" d="M386.5,480.2c5.8,0.7,10.6,1.6,13.9,6.6c0.5,0.8,2.8,1.4,3.3,1c4.7-4,6.2,0.6,7.8,3.1
		c5.1,7.8,4.9,7.9,13.3,3.8c2.5-1.2,4.8-2.8,7.4-3.8c1.1-0.4,2.6,0.1,4,0.2c-0.8,1.1-1.4,2.4-2.4,3.1c-3.6,2.5-7.2,5.2-11.2,7
		c-5.5,2.4-8.6,1-11.4-4.2c-3.4-6.4-4-6.4-9.4-1.5c-4.2,3.8-8.1,8.2-13.1,10.6c-3.7,1.8-8.9,1.9-13.1,1c-3.5-0.8-5.4-9-3.8-13.1
		c1.4-3.4,2.5-7.4,5-9.8C379.2,482,383.3,481.5,386.5,480.2z M390.7,485.3c-8,0.9-11.9,3.3-13.9,10.5c-0.6,2.2,0.3,4.8,0.5,7.3
		c2.6-0.3,5.5,0.1,7.6-1c3-1.5,5.6-4.1,8.2-6.4c2.3-2,4.4-4.3,6.6-6.5C396.7,488,393.7,486.7,390.7,485.3z"/>
	<path id="XMLID_8_" d="M525.6,482.6c-2.5,0.6-5.1,1.7-7.5,1.5c-6.4-0.4-11.9,0.9-17.1,5c-2.4,1.8-6.4,1.6-9.7,2.3
		c-0.6,0.1-1.4-0.3-2-0.1c-6.7,3.3-13.1,0.7-19.7-0.6c-1.7-0.3-4.1,0.9-5.6,2.1c-2.3,1.8-4,1.4-5.4-0.7c-2-3.1-6.2-5.5-3.5-11.4
		c2.9,7.6,8.4,4.4,13.5,5c6.4,0.7,12.5,1.2,19,0.7c5.1-0.3,9.9-0.9,14-4c5.9-4.4,12.4-3.7,19-2.5c1.6,0.3,3.2,0.4,4.9,0.6
		C525.3,481.3,525.5,481.9,525.6,482.6z"/>
	<path id="XMLID_7_" d="M319.8,512.7c-1.9-2.3-4.6-4.4-5.5-7.1c-2-5.7-3.2-11.6-4.4-17.5c-0.9-4.3-1.5-8.7-1.9-13.1
		c-0.1-1.2,0.8-2.5,1.2-3.8c1.2,0.9,3,1.6,3.3,2.7c1,3.8,1.6,7.7,2.1,11.6c0.6,4.6,0.3,9.3,1.4,13.7c1,4.2,3.4,8.1,5.2,12.1
		C320.8,511.9,320.3,512.3,319.8,512.7z"/>
	<path id="XMLID_6_" d="M760,457.5c-2.8-2.9-4.7-4.9-7.2-7.5C759.6,448.9,761,450.3,760,457.5z"/>
	<path id="XMLID_5_" class="st0" d="M458.7,429.8c-4,3.7-17.7,5-27.1,2.5c0.8-1,1.5-2.4,2.2-2.4C442,429.7,450.3,429.8,458.7,429.8z
		"/>
	<path id="XMLID_4_" class="st0" d="M390.7,485.3c3,1.3,6,2.6,9,3.9c-2.2,2.2-4.3,4.5-6.6,6.5c-2.6,2.3-5.2,4.8-8.2,6.4
		c-2.2,1.1-5.1,0.7-7.6,1c-0.2-2.4-1.1-5.1-0.5-7.3C378.8,488.7,382.6,486.2,390.7,485.3z"/>
</g>
<g id="XMLID_22_">
	<path id="XMLID_34_" class="st0" d="M136.1,606c0-115.6,0-231.2,0-346.9c257.8,0,515.7,0,773.8,0c0,115.6,0,231.2,0,346.9
		C652,606,394.1,606,136.1,606z M421.8,428.6c1.8-3.5,2.9-5.9,4.2-8.1c5.5-9.8,7.6-19.4-0.5-29.1c-4.8-5.8-10.4-10.1-17.8-11.9
		c-5.1-1.2-10.2-3-15.3-3.4c-10.5-0.8-21.1-1.4-31.7-1.1c-7.7,0.3-15.3,1.9-22.9,3.4c-8.7,1.8-17.4,3.5-25.7,6.3
		c-9.5,3.2-18.3,8.5-28,11c-15.4,4-28.4,12.9-41.9,20.3c-15.8,8.6-30,20-44.9,30.1c-2.7,1.8-5.7,3.2-8.2,5.2c-4,3.2-7.9,6.5-11.6,10
		c-6.1,6-12.4,11.9-17.9,18.5c-1.5,1.8-0.7,5.7-0.9,8.6c2.4,0,4.8,0.5,7.1,0.1c11.8-2,23.5-4.4,35.4-6.2c6.2-0.9,12.6-0.3,18.8-1.2
		c10.6-1.6,21-1.1,31.4,1.4c1.2,0.3,2.6-0.3,3.9-0.5c-1-2-2.2-3.5-3.5-3.7c-5.7-0.9-11.4-1.9-17.1-2c-6.2-0.2-12.3,0.5-18.5,0.9
		c-9,0.5-18,0.6-26.8,1.8c-7.1,1-14,3.5-21,5.1c-1.4,0.3-3-0.5-4.5-0.7c0.6-1.6,0.8-3.6,1.9-4.7c6.7-6.3,13.4-12.7,20.5-18.6
		c8-6.6,16.1-13.2,24.7-18.9c13.1-8.8,26.4-17.6,40.3-25c15-8,30.6-14.9,46.2-21.3c27.7-11.4,56.6-17.2,86.5-15.3
		c10.4,0.7,20.9,4.1,30.9,7.7c6.4,2.3,12.3,7.7,11.5,15.6c-0.5,5.6-2.6,11.4-5.4,16.3c-10.6,18.6-26.4,33.1-40.6,48.7
		c-1,1.1-1.4,2.6-2.2,3.9c1.5-0.5,3.5-0.6,4.6-1.6c12.5-11.4,25.9-22,34.6-37c1.1-2,3.1-3.5,4.3-4.9c2.9,3.3,4.8,7.3,7.7,8.4
		c8.6,3,17.8,3.5,26.9,2.3c8.3-1.1,16.6-2.2,24.9-3.7c10.2-1.8,20.4-3.4,30.3-6.1c15.2-4.1,30.2-9,45.3-13.5
		c3.8-1.1,5.4,0.6,4.4,4.5c-0.8,3-2.3,6-2.5,9c-0.8,13.5-1.1,27.1-1.7,40.6c0,0.7-0.1,1.3-0.1,2c0,4.2-2,6.6-6.2,7.7
		c-9,2.4-16.2,7.9-22.8,14.3c-1,1-1.2,2.7-1.8,4.1c1.8,0.7,3.5,1.7,5.3,1.8c1,0.1,2.2-1.3,3.2-2.1c5.4-4.3,10.7-8.7,16.2-12.8
		c1.1-0.8,3.2-1.2,4.4-0.6c0.8,0.4,1.3,2.5,1.2,3.9c-0.1,9.8-1.4,19.8-0.5,29.5c2,20.6,4.8,41.2,7.8,61.7c1,6.8,3.2,13.4,5.1,20.1
		c0.3,1.1,2,1.8,3.1,2.7c0.2-1.2,0.9-2.5,0.7-3.7c-3.3-19.1-7.4-38.1-9.7-57.3c-1.9-15.1-1.6-30.4-2.3-45.6
		c-0.1-2.3-0.5-4.6-0.9-6.8c-1.2-6.1,1.3-8.8,7.3-7c6.1,1.9,11.9,4.7,17.7,7.2c10.2,4.5,20.2,9.9,31.9,9.5
		c12.8-0.4,25.6-1.1,38.3-0.9c6.4,0.1,12.3-0.1,18.1-3.2c2.3-1.3,5.3-1.8,8-1.9c7.8-0.3,15.9,1.1,23.4-0.4c15-3.1,29.6-0.5,44.3,1
		c6.8,0.7,13.5,1.4,20.3,2.1c0.3-0.5,0.5-1,0.8-1.6c-1.5-1-2.9-2.6-4.6-3c-3.7-0.8-7.5-1-11.3-1.4c-10.8-1.2-21.6-3.3-32.4-3.5
		c-14.8-0.3-29.4,3.6-44.3,1.9c-1.5-0.2-3.1,0.8-4.6,1.5c-6.9,2.8-13.7,5.3-21.6,4.1c-6.4-0.9-13.1-0.8-19.7-0.3
		c-13.6,1-27,1.9-39.8-4.7c-7.3-3.7-15.2-6.3-22.6-9.9c-2.4-1.2-10,1.6-5.9-6.1c0-0.1-0.3-0.2-0.3-0.4c-0.8-3-2.3-6.1-2.1-9.1
		c1-14.3,2.6-28.5,3.9-42.8c0.5-5.8,2.4-7.6,8.2-8.6c4.5-0.7,9-1.8,13.4-3c10.8-2.9,21.5-5.9,32.3-8.7c1.2-0.3,3.4,0.2,3.8,1
		c0.5,0.9,0,3-0.8,4c-3.3,4.4-6.8,8.6-10.4,12.8c-4.5,5.3-9.1,10.6-13.5,15.9c-3.6,4.3-6.8,8.8-10.5,12.9
		c-6.9,7.4-14.2,14.4-21.2,21.6c-1,1-1.4,2.6-2.1,3.9c0.4,0.4,0.8,0.7,1.2,1.1c2.5-1.7,5.4-3,7.5-5.1c4.5-4.5,8.5-9.3,12.7-14
		c12.6-14.4,25.2-28.7,37.7-43.3c1.5-1.7,3-4.9,2.4-6.7c-1.9-6,1.9-5.9,5.6-6.4c7.8-1.1,15.6-2.1,23.4-3.4
		c8.5-1.4,16.8-3.5,25.3-4.5c16-2,32.1-3.5,48.2-5c6.7-0.6,13.5-0.9,20.3-0.9c6.8,0,13.7,0.5,20.5,0.7c5.6,0.1,11.2-0.7,16.6,0.2
		c13.2,2.2,26.5,4.6,39.5,8.1c16.7,4.6,30.5,14,40.2,28.5c11.4,17.1,14.1,36.1,10.1,56c-3.6,17.8-11.4,34-20.6,49.6
		c-1.8,3.1-3.3,6.4-5,9.6c0.6,0.3,1.2,0.6,1.8,0.9c3.4-6.1,6.8-12.2,10.3-18.3c6.5-11.3,11.8-23,15.5-35.5
		c5.8-19.4,3.8-37.9-4.3-55.8c-8.4-18.6-23-30.8-42-38.3c-19.1-7.5-39.1-9.9-59.2-10.8c-17.2-0.7-34.6,0.2-51.8,0.9
		c-11.2,0.5-22.4,1.6-33.5,3.1c-14,1.9-27.9,4.4-41.8,6.8c-24.8,4.2-49.4,9.3-73.3,17.5c-1.4,0.5-3.1,0.2-5.1,0.3
		c0.3-2.5,0.5-4.3,0.8-6.1c0.8-5.4,1.8-10.7,2.4-16.1c0.9-8.7,0.9-17.5,2.2-26.1c2.2-14.2,5.2-28.3,7.8-42.5
		c1.9-10.3,3.8-20.6,5.3-31c0.3-1.8-1.4-3.9-2.2-5.9c-1,1.4-2.2,2.8-3.1,4.3c-0.5,0.8-0.7,1.8-0.9,2.8c-1.8,10.7-3.4,21.4-5.3,32.1
		c-2.2,12.8-5.1,25.5-6.6,38.3c-1.9,15.9-2.7,31.9-4.3,47.8c-0.2,1.9-1.7,4.4-3.4,5.3c-2.3,1.4-5.3,1.5-8,2.2
		c-19.8,5.2-39.7,10.4-59.6,15.5c-3.5,0.9-7.8,2.5-10.6,1.2c-6-2.9-12-1.4-17.9-1.6c-6.5-0.2-13-0.1-19.5,0.1
		C436.7,427.8,429.9,428.2,421.8,428.6z M392.2,481.5c-3.3,1.2-7.3,1.7-9.6,4c-2.5,2.4-3.7,6.4-5,9.8c-1.6,4,0.4,12.3,3.8,13.1
		c4.2,0.9,9.4,0.8,13.1-1c4.9-2.4,8.9-6.8,13.1-10.6c5.4-4.9,6-4.9,9.4,1.5c2.8,5.2,5.9,6.6,11.4,4.2c4-1.8,7.6-4.5,11.2-7
		c1-0.7,1.6-2.1,2.4-3.1c-1.3-0.1-2.9-0.7-4-0.2c-2.6,1-4.9,2.5-7.4,3.8c-8.4,4.2-8.2,4.1-13.3-3.8c-1.7-2.6-3.1-7.1-7.8-3.1
		c-0.5,0.4-2.8-0.2-3.3-1C402.8,483.1,398,482.2,392.2,481.5z M531.2,483.8c-0.1-0.6-0.2-1.3-0.4-1.9c-1.6-0.2-3.2-0.3-4.9-0.6
		c-6.6-1.2-13.1-2-19,2.5c-4.1,3.1-8.9,3.7-14,4c-6.4,0.4-12.6,0-19-0.7c-5.1-0.6-10.5,2.6-13.5-5c-2.6,6,1.5,8.3,3.5,11.4
		c1.4,2.1,3.1,2.5,5.4,0.7c1.6-1.2,4-2.5,5.6-2.1c6.6,1.3,13,3.9,19.7,0.6c0.5-0.3,1.3,0.2,2,0.1c3.3-0.7,7.3-0.5,9.7-2.3
		c5.3-4,10.8-5.3,17.1-5C526.2,485.5,528.7,484.4,531.2,483.8z M325.5,514c0.5-0.4,0.9-0.8,1.4-1.3c-1.8-4-4.1-7.9-5.1-12.1
		c-1.1-4.4-0.8-9.1-1.4-13.7c-0.5-3.9-1.1-7.8-2.1-11.6c-0.3-1.1-2.2-1.8-3.3-2.7c-0.4,1.3-1.3,2.6-1.2,3.8c0.4,4.4,1,8.8,1.9,13.1
		c1.2,5.9,2.4,11.8,4.4,17.5C320.9,509.6,323.6,511.6,325.5,514z M765.7,458.8c1-7.3-0.4-8.6-7.2-7.5
		C761,453.9,762.9,455.9,765.7,458.8z"/>
	<path id="XMLID_31_" d="M421.8,428.6c8.1-0.4,14.9-0.8,21.6-1c6.5-0.2,13-0.3,19.5-0.1c6,0.2,11.9-1.3,17.9,1.6
		c2.7,1.3,7.1-0.3,10.6-1.2c19.9-5.1,39.7-10.3,59.6-15.5c2.7-0.7,5.7-0.9,8-2.2c1.6-1,3.2-3.4,3.4-5.3c1.6-15.9,2.4-31.9,4.3-47.8
		c1.6-12.8,4.4-25.5,6.6-38.3c1.8-10.7,3.5-21.4,5.3-32.1c0.2-1,0.4-2,0.9-2.8c0.9-1.5,2.1-2.9,3.1-4.3c0.8,2,2.4,4.1,2.2,5.9
		c-1.5,10.4-3.4,20.7-5.3,31c-2.6,14.2-5.6,28.3-7.8,42.5c-1.3,8.6-1.4,17.4-2.2,26.1c-0.5,5.4-1.6,10.7-2.4,16.1
		c-0.3,1.8-0.5,3.6-0.8,6.1c2-0.1,3.7,0.2,5.1-0.3c23.9-8.3,48.5-13.3,73.3-17.5c13.9-2.4,27.8-4.9,41.8-6.8
		c11.1-1.5,22.3-2.6,33.5-3.1c17.3-0.7,34.6-1.6,51.8-0.9c20.1,0.8,40.1,3.3,59.2,10.8c18.9,7.5,33.6,19.7,42,38.3
		c8,17.9,10.1,36.4,4.3,55.8c-3.8,12.6-9,24.3-15.5,35.5c-3.5,6-6.9,12.2-10.3,18.3c-0.6-0.3-1.2-0.6-1.8-0.9c1.7-3.2,3.2-6.5,5-9.6
		c9.2-15.6,17-31.7,20.6-49.6c4-19.9,1.3-38.9-10.1-56c-9.7-14.6-23.6-24-40.2-28.5c-12.9-3.5-26.2-5.9-39.5-8.1
		c-5.4-0.9-11.1-0.1-16.6-0.2c-6.8-0.2-13.7-0.7-20.5-0.7c-6.8,0-13.6,0.2-20.3,0.9c-16.1,1.5-32.2,3-48.2,5
		c-8.5,1-16.9,3.1-25.3,4.5c-7.8,1.3-15.6,2.3-23.4,3.4c-3.8,0.5-7.5,0.4-5.6,6.4c0.6,1.8-1,5-2.4,6.7
		c-12.4,14.5-25.1,28.9-37.7,43.3c-4.2,4.7-8.2,9.6-12.7,14c-2.1,2.1-5,3.4-7.5,5.1c-0.4-0.4-0.8-0.7-1.2-1.1
		c0.7-1.3,1.1-2.9,2.1-3.9c7-7.3,14.3-14.3,21.2-21.6c3.8-4,7-8.6,10.5-12.9c4.5-5.3,9.1-10.6,13.5-15.9c3.5-4.2,7.1-8.4,10.4-12.8
		c0.8-1,1.3-3,0.8-4c-0.4-0.8-2.7-1.3-3.8-1c-10.8,2.8-21.5,5.9-32.3,8.7c-4.4,1.2-8.9,2.3-13.4,3c-5.8,0.9-7.7,2.8-8.2,8.6
		c-1.3,14.3-2.8,28.5-3.9,42.8c-0.2,3,1.3,6,2.1,9.1c0,0.1,0.3,0.3,0.3,0.4c-4.1,7.7,3.5,4.9,5.9,6.1c7.4,3.6,15.3,6.1,22.6,9.9
		c12.8,6.6,26.2,5.7,39.8,4.7c6.5-0.5,13.2-0.6,19.7,0.3c7.9,1.1,14.7-1.4,21.6-4.1c1.5-0.6,3.2-1.6,4.6-1.5
		c14.9,1.7,29.5-2.3,44.3-1.9c10.8,0.2,21.6,2.3,32.4,3.5c3.8,0.4,7.6,0.6,11.3,1.4c1.7,0.4,3.1,1.9,4.6,3c-0.3,0.5-0.5,1-0.8,1.6
		c-6.8-0.7-13.5-1.4-20.3-2.1c-14.7-1.5-29.3-4.1-44.3-1c-7.5,1.6-15.6,0.2-23.4,0.4c-2.7,0.1-5.7,0.6-8,1.9
		c-5.8,3.1-11.7,3.3-18.1,3.2c-12.8-0.2-25.6,0.4-38.3,0.9c-11.7,0.4-21.7-5-31.9-9.5c-5.8-2.6-11.6-5.3-17.7-7.2
		c-5.9-1.9-8.4,0.9-7.3,7c0.4,2.3,0.8,4.5,0.9,6.8c0.7,15.2,0.4,30.5,2.3,45.6c2.4,19.2,6.5,38.2,9.7,57.3c0.2,1.2-0.4,2.4-0.7,3.7
		c-1.1-0.9-2.8-1.6-3.1-2.7c-1.9-6.6-4.1-13.3-5.1-20.1c-2.9-20.5-5.8-41.1-7.8-61.7c-0.9-9.7,0.3-19.7,0.5-29.5
		c0-1.3-0.4-3.5-1.2-3.9c-1.2-0.5-3.3-0.2-4.4,0.6c-5.5,4.1-10.8,8.5-16.2,12.8c-1,0.8-2.2,2.1-3.2,2.1c-1.8-0.1-3.5-1.2-5.3-1.8
		c0.6-1.4,0.8-3.1,1.8-4.1c6.6-6.4,13.8-11.9,22.8-14.3c4.2-1.1,6.2-3.4,6.2-7.7c0-0.7,0.1-1.3,0.1-2c0.5-13.5,0.9-27.1,1.7-40.6
		c0.2-3,1.7-6,2.5-9c1-3.8-0.6-5.6-4.4-4.5c-15.1,4.5-30.1,9.4-45.3,13.5c-9.9,2.7-20.2,4.3-30.3,6.1c-8.2,1.5-16.6,2.6-24.9,3.7
		c-9.1,1.2-18.3,0.8-26.9-2.3c-2.9-1-4.8-5.1-7.7-8.4c-1.2,1.4-3.2,2.9-4.3,4.9c-8.7,15-22.1,25.6-34.6,37c-1.1,1-3,1.1-4.6,1.6
		c0.7-1.3,1.2-2.8,2.2-3.9c14.3-15.6,30-30.1,40.6-48.7c2.8-4.9,4.8-10.7,5.4-16.3c0.8-7.9-5.1-13.2-11.5-15.6
		c-9.9-3.6-20.4-7.1-30.9-7.7c-29.9-1.9-58.9,3.9-86.5,15.3c-15.7,6.5-31.3,13.4-46.2,21.3c-13.9,7.4-27.2,16.2-40.3,25
		c-8.6,5.7-16.7,12.3-24.7,18.9c-7.1,5.9-13.8,12.2-20.5,18.6c-1.1,1.1-1.3,3.1-1.9,4.7c1.5,0.3,3.1,1,4.5,0.7
		c7-1.6,13.9-4.1,21-5.1c8.9-1.2,17.9-1.3,26.8-1.8c6.2-0.4,12.3-1,18.5-0.9c5.7,0.2,11.4,1.1,17.1,2c1.4,0.2,2.5,1.6,3.5,3.7
		c-1.3,0.2-2.7,0.8-3.9,0.5c-10.4-2.6-20.8-3-31.4-1.4c-6.2,0.9-12.6,0.3-18.8,1.2c-11.8,1.8-23.6,4.2-35.4,6.2
		c-2.3,0.4-4.7,0-7.1-0.1c0.2-2.9-0.6-6.8,0.9-8.6c5.5-6.5,11.7-12.5,17.9-18.5c3.7-3.6,7.6-6.9,11.6-10c2.5-2,5.5-3.4,8.2-5.2
		c14.9-10.1,29.1-21.6,44.9-30.1c13.6-7.4,26.5-16.2,41.9-20.3c9.6-2.5,18.5-7.9,28-11c8.4-2.8,17.1-4.6,25.7-6.3
		c7.5-1.5,15.2-3.2,22.9-3.4c10.5-0.4,21.2,0.2,31.7,1.1c5.2,0.4,10.2,2.1,15.3,3.4c7.4,1.8,13,6.1,17.8,11.9
		c8.1,9.7,6,19.3,0.5,29.1C424.8,422.7,423.7,425.1,421.8,428.6z M464.4,431c-8.4,0-16.7-0.1-24.9,0.1c-0.7,0-1.3,1.5-2.2,2.4
		C446.6,436,460.4,434.7,464.4,431z"/>
	<path id="XMLID_28_" d="M392.2,481.5c5.8,0.7,10.6,1.6,13.9,6.6c0.5,0.8,2.8,1.4,3.3,1c4.7-4,6.2,0.6,7.8,3.1
		c5.1,7.8,4.9,7.9,13.3,3.8c2.5-1.2,4.8-2.8,7.4-3.8c1.1-0.4,2.6,0.1,4,0.2c-0.8,1.1-1.4,2.4-2.4,3.1c-3.6,2.5-7.2,5.2-11.2,7
		c-5.5,2.4-8.6,1-11.4-4.2c-3.4-6.4-4-6.4-9.4-1.5c-4.2,3.8-8.1,8.2-13.1,10.6c-3.7,1.8-8.9,1.9-13.1,1c-3.5-0.8-5.4-9-3.8-13.1
		c1.4-3.4,2.5-7.4,5-9.8C384.9,483.2,388.9,482.7,392.2,481.5z M396.3,486.6c-8,0.9-11.9,3.3-13.9,10.5c-0.6,2.2,0.3,4.8,0.5,7.3
		c2.6-0.3,5.5,0.1,7.6-1c3-1.5,5.6-4.1,8.2-6.4c2.3-2,4.4-4.3,6.6-6.5C402.3,489.2,399.3,487.9,396.3,486.6z"/>
	<path id="XMLID_27_" d="M531.2,483.8c-2.5,0.6-5.1,1.7-7.5,1.5c-6.4-0.4-11.9,0.9-17.1,5c-2.4,1.8-6.4,1.6-9.7,2.3
		c-0.6,0.1-1.4-0.3-2-0.1c-6.7,3.3-13.1,0.7-19.7-0.6c-1.7-0.3-4.1,0.9-5.6,2.1c-2.3,1.8-4,1.4-5.4-0.7c-2-3.1-6.2-5.5-3.5-11.4
		c2.9,7.6,8.4,4.4,13.5,5c6.4,0.7,12.5,1.2,19,0.7c5.1-0.3,9.9-0.9,14-4c5.9-4.4,12.4-3.7,19-2.5c1.6,0.3,3.2,0.4,4.9,0.6
		C531,482.5,531.1,483.2,531.2,483.8z"/>
	<path id="XMLID_26_" d="M325.5,514c-1.9-2.3-4.6-4.4-5.5-7.1c-2-5.7-3.2-11.6-4.4-17.5c-0.9-4.3-1.5-8.7-1.9-13.1
		c-0.1-1.2,0.8-2.5,1.2-3.8c1.2,0.9,3,1.6,3.3,2.7c1,3.8,1.6,7.7,2.1,11.6c0.6,4.6,0.3,9.3,1.4,13.7c1,4.2,3.4,8.1,5.1,12.1
		C326.4,513.2,326,513.6,325.5,514z"/>
	<path id="XMLID_25_" d="M765.7,458.8c-2.8-2.9-4.7-4.9-7.2-7.5C765.3,450.2,766.7,451.5,765.7,458.8z"/>
	<path id="XMLID_24_" class="st0" d="M464.4,431c-4,3.7-17.7,5-27.1,2.5c0.8-1,1.5-2.4,2.2-2.4C447.7,431,455.9,431,464.4,431z"/>
	<path id="XMLID_23_" class="st0" d="M396.3,486.6c3,1.3,6,2.6,9,3.9c-2.2,2.2-4.3,4.5-6.6,6.5c-2.6,2.3-5.2,4.8-8.2,6.4
		c-2.2,1.1-5.1,0.7-7.6,1c-0.2-2.4-1.1-5.1-0.5-7.3C384.5,490,388.3,487.5,396.3,486.6z"/>
</g>
</svg>
